<?xml version="1.0" encoding="utf-8"?>
<!-- Generator: Adobe Illustrator 16.0.0, SVG Export Plug-In . SVG Version: 6.00 Build 0)  -->
<!DOCTYPE svg PUBLIC "-//W3C//DTD SVG 1.1//EN" "http://www.w3.org/Graphics/SVG/1.1/DTD/svg11.dtd">
<svg version="1.1" id="Layer_1" xmlns="http://www.w3.org/2000/svg" xmlns:xlink="http://www.w3.org/1999/xlink" x="0px" y="0px"
	 width="126.78px" height="109.79px" viewBox="0 0 126.78 109.79" style="enable-background:new 0 0 126.78 109.79;"
	 xml:space="preserve">
<g>
	<g>
		<polyline style="fill:none;stroke:#6D6E70;stroke-width:1.0622;stroke-miterlimit:10;" points="103.34,63.36 107.11,66.51 
			103.44,70.11 		"/>
		<line style="fill:none;stroke:#6D6E70;stroke-width:1.0622;stroke-miterlimit:10;" x1="97.65" y1="66.6" x2="106.7" y2="66.51"/>
		<polyline style="fill:none;stroke:#6D6E70;stroke-width:1.0622;stroke-miterlimit:10;" points="103.34,40.37 107.11,43.52 
			103.44,47.12 		"/>
		<line style="fill:none;stroke:#6D6E70;stroke-width:1.0622;stroke-miterlimit:10;" x1="97.65" y1="43.61" x2="106.7" y2="43.52"/>
		<g>
			<g>
				<circle style="fill:#6EBBB1;" cx="62.29" cy="20.71" r="4.83"/>
				<circle style="fill:none;stroke:#6D6E70;stroke-width:1.0622;stroke-miterlimit:10;" cx="62.29" cy="20.71" r="7.18"/>
			</g>
			<g>
				<path style="fill:#F58D70;" d="M57.46,43.86c0-2.67,2.16-4.83,4.83-4.83c2.67,0,4.83,2.16,4.83,4.83"/>
				<path style="fill:#F58D70;" d="M62.29,48.69"/>
				<circle style="fill:none;stroke:#6D6E70;stroke-width:1.0622;stroke-miterlimit:10;" cx="62.29" cy="43.86" r="7.18"/>
			</g>
			<g>
				<circle style="fill:#6EBBB1;" cx="62.29" cy="43.69" r="4.83"/>
				<circle style="fill:none;stroke:#6D6E70;stroke-width:1.0622;stroke-miterlimit:10;" cx="62.29" cy="43.69" r="7.18"/>
			</g>
			<g>
				<circle style="fill:#E6E7E8;" cx="86.55" cy="43.86" r="4.83"/>
				<circle style="fill:none;stroke:#6D6E70;stroke-width:1.0622;stroke-miterlimit:10;" cx="86.56" cy="43.86" r="7.18"/>
			</g>
			<g>
				<circle style="fill:#6EBBB1;" cx="62.29" cy="89.53" r="4.83"/>
				<circle style="fill:none;stroke:#6D6E70;stroke-width:1.0622;stroke-miterlimit:10;" cx="62.29" cy="89.53" r="7.18"/>
			</g>
			<g>
				<circle style="fill:none;stroke:#6D6E70;stroke-width:1.0622;stroke-miterlimit:10;" cx="62.29" cy="66.74" r="7.18"/>
			</g>
			<g>
				<circle style="fill:#6EBBB1;" cx="62.41" cy="66.74" r="4.83"/>
				<circle style="fill:none;stroke:#6D6E70;stroke-width:1.0622;stroke-miterlimit:10;" cx="62.29" cy="66.56" r="7.18"/>
			</g>
			<g>
				<circle style="fill:#E6E7E8;" cx="86.55" cy="66.74" r="4.83"/>
				<circle style="fill:none;stroke:#6D6E70;stroke-width:1.0622;stroke-miterlimit:10;" cx="86.56" cy="66.74" r="7.18"/>
			</g>
			
				<line style="fill:none;stroke:#6D6E70;stroke-width:1.0622;stroke-miterlimit:10;" x1="56.97" y1="25.11" x2="39.17" y2="48.26"/>
			<g>
				<circle style="fill:#E6E7E8;" cx="37.22" cy="55.3" r="4.83"/>
				<circle style="fill:none;stroke:#6D6E70;stroke-width:1.0622;stroke-miterlimit:10;" cx="37.22" cy="55.3" r="7.18"/>
			</g>
			
				<line style="fill:none;stroke:#6D6E70;stroke-width:1.0622;stroke-miterlimit:10;" x1="43.51" y1="51.65" x2="55.11" y2="45.18"/>
			
				<line style="fill:none;stroke:#6D6E70;stroke-width:1.0622;stroke-miterlimit:10;" x1="67.49" y1="48.41" x2="81.05" y2="61.73"/>
			
				<line style="fill:none;stroke:#6D6E70;stroke-width:1.0622;stroke-miterlimit:10;" x1="67.76" y1="61.91" x2="81.73" y2="48.69"/>
			
				<line style="fill:none;stroke:#6D6E70;stroke-width:1.0622;stroke-miterlimit:10;" x1="67.76" y1="84.88" x2="81.73" y2="71.56"/>
			<line style="fill:none;stroke:#6D6E70;stroke-width:1.0622;stroke-miterlimit:10;" x1="39.17" y1="62.21" x2="56.8" y2="84.33"/>
			
				<line style="fill:none;stroke:#6D6E70;stroke-width:1.0622;stroke-miterlimit:10;" x1="43.51" y1="58.77" x2="55.24" y2="65.21"/>
			<polyline style="fill:none;stroke:#6D6E70;stroke-width:1.0622;stroke-miterlimit:10;" points="21.75,51.56 25.53,54.71 
				21.85,58.31 			"/>
			
				<line style="fill:none;stroke:#6D6E70;stroke-width:1.0622;stroke-miterlimit:10;" x1="16.06" y1="54.79" x2="25.11" y2="54.71"/>
			<path style="fill:none;stroke:#6D6E70;stroke-width:1.0622;stroke-miterlimit:10;" d="M106.78,43.86"/>
			<path style="fill:none;stroke:#6D6E70;stroke-width:1.0622;stroke-miterlimit:10;" d="M97.85,43.64"/>
			<path style="fill:none;stroke:#6D6E70;stroke-width:1.0622;stroke-miterlimit:10;" d="M106.84,66.53"/>
			<path style="fill:none;stroke:#6D6E70;stroke-width:1.0622;stroke-miterlimit:10;" d="M97.92,66.3"/>
			
				<line style="fill:none;stroke:#6D6E70;stroke-width:1.0622;stroke-miterlimit:10;" x1="67.97" y1="25.11" x2="81.73" y2="38.86"/>
		</g>
	</g>
	<g>
		<polygon style="fill:none;stroke:#BBBDBF;stroke-width:1.5;stroke-miterlimit:10;" points="32.13,109.04 0.87,54.9 32.13,0.75 
			94.65,0.75 125.91,54.9 94.65,109.04 		"/>
	</g>
</g>
</svg>
