<?xml version="1.0" encoding="utf-8"?>
<!-- Generator: Adobe Illustrator 16.0.0, SVG Export Plug-In . SVG Version: 6.00 Build 0)  -->
<!DOCTYPE svg PUBLIC "-//W3C//DTD SVG 1.1//EN" "http://www.w3.org/Graphics/SVG/1.1/DTD/svg11.dtd">
<svg version="1.1" id="Layer_1" xmlns="http://www.w3.org/2000/svg" xmlns:xlink="http://www.w3.org/1999/xlink" x="0px" y="0px"
	 width="137px" height="124px" viewBox="0 0 137 124" style="enable-background:new 0 0 137 124;" xml:space="preserve">
<g>
	<g>
		<polygon style="fill:none;stroke:#BBBDBF;stroke-width:1.5;stroke-miterlimit:10;" points="35.51,116.87 4.25,62.72 35.51,8.57 
			98.04,8.57 129.3,62.72 98.04,116.87 		"/>
	</g>
	<g>
		<g>
			<path style="fill:#9DAEBC;" d="M69.67,47.7c0,0,0.46,0.7,1.01,1.78c0.55,1.08,0.46,1,1.34,0.97c0.88-0.03,2.86-0.25,2.86-0.25
				s1.08-0.22,1.41,1.3s0.42,2.56,0.48,3.26c0.06,0.71,0.12,1.37,0.06,2.92c-0.06,1.55-1.16,1.52-1.16,1.52s-2,0.13-2.86,0.25
				s-0.79,0.03-1.15,1.19c-0.36,1.16-0.56,2.02-0.56,2.02l0,0c0,0-0.19,0.86-0.56,2.02c-0.37,1.16-0.38,1.04,0.26,1.63
				c0.64,0.59,2.2,1.85,2.2,1.85s0.92,0.61,0.08,1.91c-0.85,1.31-1.51,2.1-1.97,2.65c-0.45,0.54-0.88,1.05-2.02,2.11
				c-1.14,1.06-1.9,0.25-1.9,0.25s-1.51-1.31-2.2-1.85c-0.7-0.53-0.58-0.54-1.65,0.03c-1.07,0.57-1.82,1.03-1.82,1.03l0,0
				c0,0-0.74,0.47-1.82,1.03c-1.08,0.55-1,0.46-0.97,1.34c0.04,0.88,0.25,2.87,0.25,2.87s0.22,1.08-1.3,1.41
				c-1.52,0.33-2.56,0.42-3.26,0.48c-0.71,0.06-1.37,0.12-2.92,0.06c-1.55-0.06-1.52-1.16-1.52-1.16s-0.13-1.99-0.25-2.86
				c-0.12-0.87-0.03-0.79-1.19-1.15c-1.16-0.36-2.02-0.56-2.02-0.56l0,0c0,0-0.86-0.19-2.02-0.56c-1.16-0.37-1.04-0.38-1.63,0.26
				c-0.6,0.65-1.85,2.2-1.85,2.2s-0.61,0.92-1.91,0.08c-1.31-0.84-2.1-1.51-2.65-1.97c-0.54-0.46-1.05-0.88-2.11-2.02
				c-1.06-1.14-0.26-1.9-0.26-1.9s1.32-1.5,1.85-2.2c0.53-0.7,0.54-0.58-0.03-1.65c-0.57-1.07-1.03-1.82-1.03-1.82l0,0
				c0,0-0.48-0.75-1.03-1.82c-0.56-1.08-0.47-1.01-1.34-0.97c-0.88,0.04-2.87,0.25-2.87,0.25s-1.08,0.22-1.41-1.3
				c-0.33-1.52-0.42-2.56-0.48-3.26c-0.06-0.71-0.12-1.37-0.06-2.92c0.06-1.55,1.16-1.52,1.16-1.52s1.99-0.13,2.86-0.25
				c0.87-0.12,0.79-0.03,1.15-1.19c0.36-1.16,0.56-2.02,0.56-2.02l0,0c0,0,0.19-0.86,0.56-2.02c0.37-1.16,0.38-1.04-0.26-1.63
				c-0.65-0.59-2.2-1.85-2.2-1.85s-0.92-0.61-0.08-1.91c0.85-1.31,1.51-2.1,1.97-2.65c0.45-0.54,0.88-1.05,2.02-2.11
				c1.14-1.06,1.9-0.26,1.9-0.26s1.5,1.32,2.2,1.85c0.7,0.53,0.58,0.54,1.65-0.03c1.07-0.57,1.83-1.03,1.83-1.03l0,0
				c0,0,0.74-0.48,1.82-1.03c1.08-0.55,1.01-0.47,0.97-1.34c-0.04-0.88-0.25-2.87-0.25-2.87s-0.22-1.08,1.3-1.41
				c1.52-0.33,2.56-0.42,3.26-0.48c0.7-0.06,1.37-0.12,2.92-0.06c1.55,0.05,1.52,1.16,1.52,1.16s0.13,2,0.25,2.86
				c0.12,0.87,0.03,0.79,1.19,1.15c1.16,0.36,1.95,0.59,1.95,0.59l0,0c0,0,0.95,0.21,2.09,0.53c1.17,0.32,1.04,0.38,1.63-0.26
				c0.59-0.64,1.85-2.2,1.85-2.2s0.61-0.92,1.92-0.08c1.3,0.84,2.1,1.51,2.64,1.97c0.54,0.45,1.05,0.88,2.11,2.02
				c1.06,1.14,0.26,1.9,0.26,1.9s-1.32,1.51-1.85,2.2s-0.54,0.58,0.03,1.65C69.19,46.91,69.67,47.7,69.67,47.7 M62.73,65.69
				c4.85-5.78,4.1-14.4-1.69-19.25c-5.78-4.85-14.4-4.1-19.25,1.69c-4.85,5.78-4.1,14.4,1.69,19.25
				C49.26,72.23,57.88,71.48,62.73,65.69z"/>
		</g>
		<path style="fill:#A6CFD9;" d="M69.4,100.72c-1.42-0.02-3.13,0.08-4.02,1.51c-0.54,1.19-0.53,1.63-1.75,1.15
			c0,0-1.45-0.88-1.8-1.12c-0.37-0.23-1.81-1.34-1.81-1.34c-1.01-0.93-0.59-1.09,0.23-2.04c0.89-1.37,0.38-2.68-0.29-3.97
			l-0.38-0.58c-0.71-1.27-1.52-2.43-3.15-2.44c-1.25,0.17-1.61,0.42-1.83-0.93c0,0-0.05-1.74-0.04-2.17
			c0.02-0.44,0.18-2.17,0.18-2.17c0.31-1.33,0.65-1.06,1.89-0.81c1.63,0.1,2.62-1.17,3.41-2.39c0.74-1.26,1.42-2.71,0.61-4.12
			c-0.78-0.99-1.18-1.17-0.13-2.05c0,0,1.47-0.93,1.85-1.14c0.38-0.21,1.96-0.95,1.96-0.95c1.31-0.41,1.24,0.02,1.65,1.22
			c0.75,1.45,2.14,1.65,3.6,1.71l0.68,0.08c1.46,0.02,2.86-0.11,3.68-1.52c0.48-1.17,0.43-1.61,1.72-1.13c0,0,1.54,0.82,1.91,1.05
			c0.37,0.23,1.79,1.23,1.79,1.23c1,0.93,0.59,1.09-0.24,2.04c-0.89,1.37-0.38,2.68,0.29,3.97l0.38,0.58
			c0.71,1.27,1.52,2.43,3.15,2.44c1.25-0.17,1.61-0.42,1.83,0.93c0,0,0.05,1.74,0.04,2.17c-0.02,0.44-0.18,2.17-0.18,2.17
			c-0.31,1.34-0.65,1.06-1.89,0.81c-1.63-0.1-2.61,1.18-3.4,2.41c-0.8,1.28-1.52,2.78-0.82,4.22c0.7,1.01,1.08,1.19-0.01,2.09
			c0,0-1.49,0.94-1.88,1.16c-0.39,0.21-1.97,0.96-1.97,0.96c-1.3,0.42-1.21-0.03-1.54-1.24C72.5,101.03,70.82,100.78,69.4,100.72z
			 M75.64,93.29c2.06-3.35,1.02-7.74-2.33-9.8s-7.74-1.02-9.8,2.33c-2.06,3.35-1.02,7.74,2.33,9.8
			C69.19,97.68,73.58,96.64,75.64,93.29z"/>
		<path style="fill:#6FBBB1;" d="M89.45,52.09c-1.32,0.53-2.86,1.27-3.13,2.94c-0.04,1.3,0.14,1.71-1.17,1.73
			c0,0-1.68-0.26-2.09-0.34c-0.43-0.07-2.19-0.54-2.19-0.54c-1.29-0.47-0.97-0.78-0.56-1.97c0.3-1.6-0.68-2.62-1.8-3.56l-0.57-0.39
			c-1.14-0.9-2.33-1.66-3.84-1.05c-1.09,0.63-1.33,1-2.05-0.16c0,0-0.71-1.58-0.87-1.99c-0.15-0.41-0.66-2.07-0.66-2.07
			c-0.23-1.35,0.2-1.23,1.43-1.47c1.54-0.54,1.97-2.09,2.23-3.52c0.2-1.44,0.27-3.05-1.02-4.04c-1.1-0.62-1.54-0.63-0.91-1.84
			c0,0,1-1.42,1.28-1.76c0.27-0.34,1.44-1.63,1.44-1.63c1.05-0.88,1.16-0.45,2,0.49c1.24,1.05,2.61,0.71,3.98,0.2l0.66-0.19
			c1.35-0.54,2.6-1.2,2.81-2.82c-0.01-1.26-0.22-1.65,1.15-1.7c0,0,1.73,0.17,2.16,0.24c0.43,0.07,2.12,0.45,2.12,0.45
			c1.29,0.47,0.97,0.78,0.57,1.98c-0.3,1.6,0.68,2.62,1.8,3.55l0.57,0.39c1.14,0.9,2.33,1.66,3.84,1.05c1.09-0.63,1.33-1,2.05,0.16
			c0,0,0.71,1.59,0.87,2c0.15,0.41,0.66,2.07,0.66,2.07c0.22,1.35-0.2,1.23-1.44,1.47c-1.54,0.54-1.95,2.09-2.21,3.53
			c-0.25,1.49-0.34,3.16,0.87,4.21c1.03,0.67,1.45,0.69,0.79,1.93c0,0-1.02,1.44-1.3,1.79c-0.28,0.35-1.45,1.65-1.45,1.65
			c-1.04,0.89-1.13,0.44-1.89-0.55C92.42,51.18,90.78,51.6,89.45,52.09z M92.36,42.83c0.62-3.88-2.03-7.54-5.91-8.16
			c-3.89-0.62-7.54,2.03-8.16,5.91c-0.62,3.89,2.03,7.54,5.91,8.16C88.09,49.36,91.74,46.71,92.36,42.83z"/>
	</g>
</g>
</svg>
