<?xml version="1.0" encoding="utf-8"?>
<!-- Generator: Adobe Illustrator 16.0.0, SVG Export Plug-In . SVG Version: 6.00 Build 0)  -->
<!DOCTYPE svg PUBLIC "-//W3C//DTD SVG 1.1//EN" "http://www.w3.org/Graphics/SVG/1.1/DTD/svg11.dtd">
<svg version="1.1" id="Layer_1" xmlns="http://www.w3.org/2000/svg" xmlns:xlink="http://www.w3.org/1999/xlink" x="0px" y="0px"
	 width="126.78px" height="109.79px" viewBox="0 0 126.78 109.79" style="enable-background:new 0 0 126.78 109.79;"
	 xml:space="preserve">
<g>
	<path style="fill:none;stroke:#62A3A1;stroke-width:4.0366;stroke-miterlimit:10;" d="M70.98,74.72
		c-0.23-10.09,8.27-16.62,9.01-24.8c0.57-6.3-1.65-15.13-15.95-15.29c-14.3,0.15-16.52,8.99-15.95,15.29
		c0.74,8.17,9.24,14.7,9.01,24.8"/>
	<line style="fill:none;stroke:#EFBF54;stroke-width:3;stroke-miterlimit:10;" x1="64.09" y1="28.55" x2="64.01" y2="21.31"/>
	<line style="fill:none;stroke:#EFBF54;stroke-width:3;stroke-miterlimit:10;" x1="83.29" y1="38.1" x2="89.46" y2="33.16"/>
	<line style="fill:none;stroke:#EFBF54;stroke-width:3;stroke-miterlimit:10;" x1="43.82" y1="38.04" x2="37.21" y2="33.23"/>
	
		<line style="fill:none;stroke:#62A3A1;stroke-width:3.0275;stroke-linecap:round;stroke-miterlimit:10;" x1="59.04" y1="79.01" x2="69.15" y2="77.88"/>
	
		<line style="fill:none;stroke:#62A3A1;stroke-width:3.0275;stroke-linecap:round;stroke-miterlimit:10;" x1="59.04" y1="84.06" x2="69.15" y2="82.93"/>
	
		<line style="fill:none;stroke:#62A3A1;stroke-width:3.0275;stroke-linecap:round;stroke-miterlimit:10;" x1="61.78" y1="88.63" x2="66.41" y2="88.58"/>
	<line style="fill:none;stroke:#EFBF54;stroke-width:3;stroke-miterlimit:10;" x1="52.44" y1="30.75" x2="48.83" y2="24.23"/>
	<line style="fill:none;stroke:#EFBF54;stroke-width:3;stroke-miterlimit:10;" x1="74.63" y1="30.79" x2="78.51" y2="24.19"/>
	<g>
		<polygon style="fill:none;stroke:#BBBDBF;stroke-width:1.5;stroke-miterlimit:10;" points="32.13,109.04 0.87,54.9 32.13,0.75 
			94.65,0.75 125.91,54.9 94.65,109.04 		"/>
	</g>
</g>
</svg>
