<?xml version="1.0" encoding="utf-8"?>
<!-- Generator: Adobe Illustrator 16.0.0, SVG Export Plug-In . SVG Version: 6.00 Build 0)  -->
<!DOCTYPE svg PUBLIC "-//W3C//DTD SVG 1.1//EN" "http://www.w3.org/Graphics/SVG/1.1/DTD/svg11.dtd">
<svg version="1.1" id="Layer_1" xmlns="http://www.w3.org/2000/svg" xmlns:xlink="http://www.w3.org/1999/xlink" x="0px" y="0px"
	 width="126.78px" height="109.79px" viewBox="0 0 126.78 109.79" style="enable-background:new 0 0 126.78 109.79;"
	 xml:space="preserve">
<g>
	<circle style="fill:#FBCA8E;stroke:#6D6E70;stroke-width:0.6875;stroke-miterlimit:10;" cx="34.35" cy="79.3" r="2"/>
	<circle style="fill:#FBCA8E;stroke:#6D6E70;stroke-width:0.6875;stroke-miterlimit:10;" cx="33.36" cy="67.56" r="2"/>
	<circle style="fill:#FBCA8E;stroke:#6D6E70;stroke-width:0.6875;stroke-miterlimit:10;" cx="41.69" cy="69.55" r="2"/>
	<circle style="fill:#FBCA8E;stroke:#6D6E70;stroke-width:0.6875;stroke-miterlimit:10;" cx="42.98" cy="58.45" r="2"/>
	<circle style="fill:#FBCA8E;stroke:#6D6E70;stroke-width:0.6875;stroke-miterlimit:10;" cx="51.18" cy="64.87" r="2"/>
	<circle style="fill:#FBCA8E;stroke:#6D6E70;stroke-width:0.6875;stroke-miterlimit:10;" cx="50.33" cy="55.56" r="2"/>
	<circle style="fill:#FBCA8E;stroke:#6D6E70;stroke-width:0.6875;stroke-miterlimit:10;" cx="60.09" cy="56.88" r="2"/>
	<circle style="fill:#FBCA8E;stroke:#6D6E70;stroke-width:0.6875;stroke-miterlimit:10;" cx="68.16" cy="64.02" r="2"/>
	<circle style="fill:#FBCA8E;stroke:#6D6E70;stroke-width:0.6875;stroke-miterlimit:10;" cx="74.81" cy="49.17" r="2"/>
	<circle style="fill:#FBCA8E;stroke:#6D6E70;stroke-width:0.6875;stroke-miterlimit:10;" cx="70.15" cy="55.56" r="2"/>
	<circle style="fill:#FBCA8E;stroke:#6D6E70;stroke-width:0.6875;stroke-miterlimit:10;" cx="78.06" cy="59.55" r="2"/>
	<circle style="fill:#FBCA8E;stroke:#6D6E70;stroke-width:0.6875;stroke-miterlimit:10;" cx="84.71" cy="51.16" r="2"/>
	<g>
		<g>
			<path style="fill:none;stroke:#6D6E70;stroke-width:0.6875;stroke-miterlimit:10;" d="M28.59,81.3c0.18-0.39,0.36-0.77,0.54-1.15
				"/>
			<path style="fill:none;stroke:#6D6E70;stroke-width:0.6875;stroke-miterlimit:10;stroke-dasharray:2.5334,1.6889;" d="
				M29.88,78.63c19.09-37.38,41.65,1.57,56.28-40.3"/>
			<path style="fill:none;stroke:#6D6E70;stroke-width:0.6875;stroke-miterlimit:10;" d="M86.44,37.54c0.13-0.4,0.27-0.8,0.4-1.21"
				/>
			<g>
				<polygon style="fill:#6D6E70;" points="88.75,39.39 88.12,39.67 86.74,36.57 83.75,38.18 83.43,37.57 87.06,35.62 				"/>
			</g>
		</g>
	</g>
</g>
<g>
	<polygon style="fill:none;stroke:#BBBDBF;stroke-width:1.5;stroke-miterlimit:10;" points="32.13,109.04 0.87,54.9 32.13,0.75 
		94.65,0.75 125.91,54.9 94.65,109.04 	"/>
</g>
<g>
	<path style="fill:#7B9FBA;" d="M95.42,44.42c0.65-0.58,1.67-0.51,2.27,0.16l4.9,5.44c0.61,0.67,0.57,1.69-0.08,2.28l-0.96,0.87
		c-0.65,0.58-1.67,0.51-2.27-0.16l-4.9-5.44c-0.61-0.67-0.57-1.69,0.08-2.28L95.42,44.42z"/>
	<path style="fill:#7B9FBA;" d="M94.83,36.02c0.04,4.51-3.58,8.19-8.09,8.23c-4.51,0.04-8.19-3.59-8.23-8.09
		c-0.04-4.51,3.58-8.19,8.09-8.23S94.79,31.52,94.83,36.02z M86.58,25.48c-5.86,0.05-10.57,4.84-10.52,10.69
		c0.05,5.86,4.84,10.57,10.69,10.52c5.86-0.05,10.57-4.84,10.52-10.69C97.23,30.14,92.44,25.43,86.58,25.48z"/>
</g>
</svg>
