<?xml version="1.0" encoding="utf-8"?>
<!-- Generator: Adobe Illustrator 16.0.0, SVG Export Plug-In . SVG Version: 6.00 Build 0)  -->
<!DOCTYPE svg PUBLIC "-//W3C//DTD SVG 1.1//EN" "http://www.w3.org/Graphics/SVG/1.1/DTD/svg11.dtd">
<svg version="1.1" id="Layer_1" xmlns="http://www.w3.org/2000/svg" xmlns:xlink="http://www.w3.org/1999/xlink" x="0px" y="0px"
	 width="126.78px" height="109.79px" viewBox="0 0 126.78 109.79" style="enable-background:new 0 0 126.78 109.79;"
	 xml:space="preserve">
<g>
	<g>
		<polygon style="fill:none;stroke:#BBBDBF;stroke-width:1.5;stroke-miterlimit:10;" points="32.13,109.04 0.87,54.9 32.13,0.75 
			94.65,0.75 125.91,54.9 94.65,109.04 		"/>
	</g>
	<g>
		<path style="fill:#A6CFD9;stroke:#FFFFFF;stroke-width:1.25;stroke-miterlimit:10;" d="M33.4,23.82c0,0,6.34,0,10.88,0
			c2.18,0,1.89-2.55,1.09-2.9c-2.45-1.06-2.45-6.98,1.99-6.98c4.44,0,4.44,5.17,2.45,6.43c-1.99,1.27-1.27,3.44-0.18,3.44
			s11.87,0,11.87,0s0,8.79,0,11.24c0,1.63-1.18,0.82-1.99,0c-3.41-3.14-7.76-0.42-7.76,3.2c0,3.63,5.56,5.98,7.98,2.36
			c1.27-1.39,1.78-0.79,1.78,0.97v10.63c0,0-9.09,0-11.03,0s-1.87,2.21-0.97,3.05c3.41,3.02,0.36,6.74-2.24,6.74
			c-2.6,0-5.18-3.46-2.21-6.8c0.73-0.82,2.21-2.78-1.24-2.78H33.31V41.52c0,0-0.39-2.99,2.11-0.48c2.51,2.51,7.37,1.24,7.37-3.07
			c0-4.3-4.95-5.09-7.07-3.16c-2.11,1.93-2.33,1.27-2.33-0.18S33.4,23.82,33.4,23.82z"/>
		<path style="fill:#F3ABA2;stroke:#FFFFFF;stroke-width:1.25;stroke-miterlimit:10;" d="M90.54,23.62c0,0,0,6.71,0,11.24
			c0,2.18,2.55,1.89,2.9,1.09c1.06-2.45,6.98-2.45,6.98,1.99c0,4.44-5.17,4.44-6.43,2.45c-1.27-1.99-3.44-1.27-3.44-0.18
			c0,1.09,0,11.87,0,11.87s-8.79,0-11.24,0c-1.63,0-0.82-1.18,0-1.99c3.14-3.41,0.42-7.76-3.2-7.76s-5.98,5.56-2.36,7.98
			c1.39,1.27,0.79,1.78-0.97,1.78H62c0,0,0-9.09,0-11.03s-2.07-1.87-2.91-0.97c-3.49,3.91-6.87,0.48-6.87-2.12
			c0-2.6,3.6-5.3,6.93-2.33c0.82,0.73,2.78,2.21,2.78-1.24V23.89h10.91c0,0,2.99-0.39,0.48,2.12c-2.51,2.51-1.24,7.37,3.07,7.37
			s5.09-4.95,3.16-7.07c-1.93-2.11-1.27-2.69,0.18-2.69C81.17,23.62,90.54,23.62,90.54,23.62z"/>
		<path style="fill:#FBCA8E;stroke:#FFFFFF;stroke-width:1.25;stroke-miterlimit:10;" d="M61.21,52.87c0,0,0,6.71,0,11.24
			c0,2.18,2.45,1.89,2.79,1.09c1.02-2.45,6.71-2.45,6.71,1.99s-4.97,4.44-6.19,2.45c-1.22-1.99-3.31-1.27-3.31-0.18s0,11.87,0,11.87
			s-8.45,0-10.81,0c-1.57,0-0.78-1.18,0-1.99c3.02-3.41,0.41-7.76-3.08-7.76s-5.75,5.56-2.27,7.98c1.34,1.27,0.76,1.78-0.93,1.78
			H33.9c0,0,0-9.09,0-11.03s-2.12-1.87-2.93-0.97c-3.35,3.91-6.61,0.48-6.61-2.11s3.46-5.3,6.67-2.33c0.79,0.73,2.67,2.21,2.67-1.24
			V53.14h10.12c0,0,2.88-0.39,0.46,2.12c-2.41,2.51-0.83,7.37,3.31,7.37c4.14,0,4.89-4.95,3.04-7.07c-1.86-2.11-1.22-2.69,0.17-2.69
			C52.2,52.87,61.21,52.87,61.21,52.87z"/>
	</g>
	<path style="fill:#9DADBB;stroke:#FFFFFF;stroke-width:1.1718;stroke-miterlimit:10;" d="M71.78,62.09c0,0,6-0.01,10.29-0.02
		c2.06-0.01,1.79-2.37,1.02-2.69c-2.32-0.98-2.33-6.47,1.87-6.48c4.2-0.01,4.21,4.78,2.33,5.96c-1.88,1.18-1.2,3.2-0.16,3.19
		c1.03,0,11.23-0.02,11.23-0.02s0.02,8.15,0.02,10.42c0,1.51-1.11,0.76-1.88,0c-3.24-2.91-7.35-0.38-7.34,2.99
		c0.01,3.36,5.27,5.53,7.55,2.17c1.2-1.29,1.68-0.73,1.69,0.89l0.02,9.86c0,0-8.6,0.02-10.43,0.02c-1.83,0-1.77,2.05-0.91,2.83
		c3.23,2.79,0.36,6.25-2.1,6.25c-2.46,0.01-4.91-3.2-2.1-6.3c0.69-0.76,2.08-2.58-1.18-2.57l-9.95,0.02l-0.02-10.12
		c0,0-0.38-2.77,2-0.45c2.38,2.32,6.98,1.14,6.97-2.86C80.69,71.2,76,70.49,74,72.28c-2,1.8-2.2,1.18-2.2-0.16
		C71.8,70.77,71.78,62.09,71.78,62.09z"/>
</g>
</svg>
