<?xml version="1.0" standalone="no"?>
<!DOCTYPE svg PUBLIC "-//W3C//DTD SVG 20010904//EN"
 "http://www.w3.org/TR/2001/REC-SVG-20010904/DTD/svg10.dtd">
<svg version="1.0" xmlns="http://www.w3.org/2000/svg"
 width="700.000000pt" height="700.000000pt" style="background-color: #ffffff;" viewBox="0 0 700.000000 700.000000"
 preserveAspectRatio="xMidYMid meet">
<g transform="translate(0.000000,700.000000) scale(0.100000,-0.100000)"
fill="#FAAF40" stroke="none">
<path d="M4769 5966 c-3 -3 -20 -8 -39 -11 -84 -14 -200 -62 -283 -117 -169
-113 -288 -293 -331 -498 -17 -83 -15 -270 3 -330 6 -19 11 -36 11 -38 0 -1
-141 -72 -312 -156 -172 -85 -383 -188 -468 -231 -85 -42 -178 -87 -207 -100
l-52 -24 -23 37 c-82 137 -211 264 -365 360 -91 58 -263 122 -370 137 -21 4
-46 9 -56 11 -25 8 -211 7 -272 -1 -547 -71 -962 -551 -950 -1101 6 -288 117
-546 320 -750 258 -256 629 -369 979 -296 220 45 402 141 553 291 28 28 54 51
56 51 3 0 122 -80 264 -178 142 -98 404 -278 583 -401 179 -123 331 -229 337
-235 10 -9 6 -27 -17 -84 -156 -384 -27 -839 310 -1090 67 -49 169 -105 230
-126 134 -44 174 -50 330 -50 139 1 164 3 244 28 452 137 727 554 671 1016
-36 296 -237 577 -510 712 -63 32 -165 67 -213 74 -20 3 -44 8 -52 11 -8 3
-65 7 -126 8 -251 7 -497 -90 -671 -263 l-61 -61 -126 87 c-69 48 -201 139
-293 202 -92 63 -291 201 -443 305 -151 105 -288 198 -303 208 l-27 18 25 48
c58 115 96 244 111 376 13 120 -3 310 -35 423 l-10 32 142 69 c171 83 732 358
828 406 l68 35 30 -42 c114 -155 293 -271 476 -308 68 -14 217 -18 286 -7 184
29 385 151 497 302 293 394 163 953 -274 1173 -108 54 -196 75 -335 79 -69 2
-128 1 -130 -1z m233 -227 c82 -17 206 -82 265 -139 128 -124 186 -268 179
-440 -5 -105 -34 -192 -93 -282 -109 -166 -299 -263 -492 -253 -155 9 -264 57
-371 164 -117 118 -160 216 -166 376 -6 169 47 307 163 421 136 133 329 191
515 153z m-2741 -954 c180 -18 378 -121 515 -266 215 -229 290 -555 197 -853
-85 -270 -295 -482 -564 -570 -95 -30 -158 -39 -274 -39 -104 1 -144 6 -240
34 -190 57 -362 183 -472 349 -107 162 -153 325 -147 517 10 326 207 619 508
758 85 39 179 65 261 72 33 3 61 7 63 8 3 3 77 -2 153 -10z m2914 -2139 c252
-66 458 -283 511 -538 103 -493 -314 -929 -811 -849 -343 56 -600 368 -590
717 4 126 24 203 81 314 69 133 177 237 319 305 50 24 115 48 145 54 30 6 64
13 75 15 38 9 210 -3 270 -18z"/>
</g>
</svg>
